<svg id="Layer_1" data-name="Layer 1" xmlns="http://www.w3.org/2000/svg" viewBox="0 0 323.45 105.91"><defs><style>.cls-1{fill:#00953a;}.cls-2,.cls-3{fill:#0033a0;}.cls-3{font-size:21px;font-family:Montserrat-Regular, Montserrat;}.cls-4{letter-spacing:-0.02em;}.cls-5,.cls-6{letter-spacing:0em;}.cls-6,.cls-7{font-family:Montserrat-Bold, Montserrat;font-weight:700;}</style></defs><title>jpr-logo</title><path class="cls-1" d="M48.93,90c0-5.36-.34-5.76-3-6.16l-2.17-.34a1.63,1.63,0,0,1,0-2c3.65.11,6.5.17,9.18.17s5.59-.06,8.55-.17a1.62,1.62,0,0,1,0,2l-1.48.29c-2.62.51-3,.86-3,6.22v20.65c0,4.51-.34,8.44-1.31,11-1.94,5-6.1,8.84-13.35,9.12-1.6.06-4.33-.34-4.33-2.28a5.34,5.34,0,0,1,1.48-3.31,2.22,2.22,0,0,1,1.6-.74,5.53,5.53,0,0,1,2.91,1.43,5.76,5.76,0,0,0,2.51,1.43c1.31,0,1.6-2.68,1.82-4.68a106.63,106.63,0,0,0,.51-11.18Z" transform="translate(-38.1 -46.29)"/><path class="cls-1" d="M60.26,108.41c-.06-8.15,6.39-12.66,13.12-12.66s12.77,4.11,12.77,12.15c0,8.33-6.1,12.26-13.12,12.26-6.79,0-12.72-3.88-12.77-11.75m8.21-1.25c0,6,1.88,10.38,5.19,10.38s4.34-3.71,4.28-8.84c-.06-5.53-1.65-10.32-4.91-10.32-2.51,0-4.56,2.57-4.56,8.78" transform="translate(-38.1 -46.29)"/><path class="cls-1" d="M111.52,111.83c0,3.37.17,4.85,1.54,4.85a7.75,7.75,0,0,0,2.28-.46c.51.11.57,2.17-.17,2.45a41.05,41.05,0,0,0-10.55,2.05.79.79,0,0,1-.69-.68,14.73,14.73,0,0,0,.17-2.05.59.59,0,0,0-.63-.57c-2.22,1.43-4.22,2.74-7.76,2.74-4.73,0-6.67-2.45-6.67-7.3v-9.7c0-3-.34-3.31-1.71-3.71l-.74-.23a1.56,1.56,0,0,1,.23-2,41.35,41.35,0,0,0,5.53-.51c1.71-.28,3.37-1,3.59-1s.63.4.68.68c-.11,1.43-.17,3-.17,5v9.41c0,2.74.4,5.13,4.05,5.13a4.56,4.56,0,0,0,3-1.08,2.42,2.42,0,0,0,.63-1.71V102.42c0-2.28-.4-2.79-2.45-3.08l-.8-.11c-.46-.4-.4-1.77.28-2,2.05-.11,4.11-.34,5.93-.57,2-.28,3.71-.91,4-.91s.51.29.57.68c-.06,1-.17,2.91-.17,5Z" transform="translate(-38.1 -46.29)"/><path class="cls-1" d="M119.61,104.25c0-2.28,0-3-1.08-3.65l-.8-.51a1.37,1.37,0,0,1,0-1.71A38.9,38.9,0,0,0,126.06,95a1.15,1.15,0,0,1,1,.51c-.11,1.14-.23,1.94-.23,2.45s.11.57.57.69c1.54-1,3.19-2.85,5.59-2.85a3.18,3.18,0,0,1,3.14,3.36,3.45,3.45,0,0,1-3.65,3.71,3.21,3.21,0,0,1-2.23-1c-1.31-1.08-1.82-1.14-2.17-1.14-.8,0-1.08,1.25-1.08,3.42v8.78c0,4,.23,4.45,2.11,4.62l1.83.17a1.55,1.55,0,0,1-.06,2c-2.74-.11-5-.17-7.7-.17-2.34,0-4.85.06-6.73.17a1.55,1.55,0,0,1-.06-2l1.08-.11c1.88-.17,2.11-.68,2.11-4.68Z" transform="translate(-38.1 -46.29)"/><path class="cls-1" d="M139,104.13c0-2.28,0-3-1.08-3.65l-.8-.51a1.37,1.37,0,0,1,0-1.71A42.67,42.67,0,0,0,145.56,95a1.15,1.15,0,0,1,1,.51c0,.8-.17,2.17-.17,2.57s.11.46.29.46a5,5,0,0,0,1.08-.46c1.25-.74,3.93-2.28,6.56-2.28,4.73,0,7.13,3.25,7.13,7.19v9.81c0,4,.23,4.45,2.28,4.68l.91.11a1.55,1.55,0,0,1-.06,2c-1.77-.11-4.16-.17-6.9-.17-2.28,0-4.51.06-6.16.17a1.55,1.55,0,0,1-.06-2l1-.17c1.31-.23,1.54-.63,1.54-3.76V104c0-2.22-1.14-4-4-4a4,4,0,0,0-3.19,1.37,3.3,3.3,0,0,0-.46,2.11V113.6c0,3.14.23,3.65,1.65,3.82l.91.11a1.55,1.55,0,0,1-.06,2c-1.77-.11-3.59-.17-6.33-.17-2.39,0-4.73.06-6.73.17a1.55,1.55,0,0,1-.06-2l.91-.11c2.05-.23,2.28-.68,2.28-4.68Z" transform="translate(-38.1 -46.29)"/><path class="cls-1" d="M175,105.85c-1.31,0-1.43.11-1.43,1,0,4.28,2.74,8.44,8,8.44a5.64,5.64,0,0,0,5.3-3,1.29,1.29,0,0,1,1.48,1.31,10.93,10.93,0,0,1-10,6.5c-7.7,0-11.86-5.42-11.86-11.63,0-7.19,5.19-12.77,12.32-12.77,5.93,0,9.12,3.82,9.12,8.21,0,1.08-.28,1.88-2.05,1.88Zm3.76-2.51a4.55,4.55,0,0,0,2.34-.51c.28-.17.4-.74.4-1.31a2.85,2.85,0,0,0-3-3.14,4.66,4.66,0,0,0-4.45,4.11c0,.8.8.86,2.62.86Z" transform="translate(-38.1 -46.29)"/><path class="cls-1" d="M187.19,98.37c-.4-.4-.4-1.77.17-2,2.05.11,4.51.17,7.53.17,2.11,0,4.28-.06,6.39-.17.57.23.63,1.6.17,2l-1.14.23c-1.6.34-1.71.57-1.71,1.08,0,.69.63,2.17,1.71,5.08.63,1.6,1.88,5.08,2.57,6.5.63-1.2,1.2-2.51,1.77-3.76l1-2.34a28.89,28.89,0,0,0,2.11-5.76c0-.4-.57-.69-1.25-.8l-1.14-.23c-.51-.4-.46-1.83.17-2,1.25.11,3,.17,5.53.17q2.22,0,4.45-.17c.57.23.63,1.65.11,2l-1.08.11a3.71,3.71,0,0,0-2.62,1.25,44.56,44.56,0,0,0-3.36,6l-3,6.22c-2,4.11-6.62,13.75-8.67,18-1.2,2.57-2.79,3.71-4.9,3.76-3.08.06-3.65-1.88-3.65-3.42a3,3,0,0,1,3.25-3H193a3.25,3.25,0,0,0,2.79-1.2A20,20,0,0,0,197.4,123a6.6,6.6,0,0,0,.8-2.4,11.7,11.7,0,0,0-1.08-4.16l-5.48-13.8c-1.08-2.74-1.6-3.76-3.42-4Z" transform="translate(-38.1 -46.29)"/><path class="cls-2" d="M235.7,80.07q7.63,0,9.91,3.87a9.47,9.47,0,0,1,1.17,4.84,11,11,0,0,1-3.91,9A13.56,13.56,0,0,1,234,101a15,15,0,0,1-3.37-.39,11.72,11.72,0,0,0-1-2l.59-.61a6.82,6.82,0,0,0,2.14.39,5.63,5.63,0,0,0,4.51-2,8.35,8.35,0,0,0,1.7-5.58q0-7.77-7-7.77a32,32,0,0,0-3.34.33Q228,84,228,92.43v14.73a62.59,62.59,0,0,0,.36,8.63,1.21,1.21,0,0,0,.95,1q.25.06,3.81.28l.31.31v1.84l-.28.28q-3.82-.17-9.13-.17-6,0-8.58.17l-.28-.25v-1.86l.31-.31a30.16,30.16,0,0,0,3.23-.28,1.21,1.21,0,0,0,.95-1,62.55,62.55,0,0,0,.36-8.63V92.43a62.56,62.56,0,0,0-.36-8.63,1.21,1.21,0,0,0-.95-1,30.84,30.84,0,0,0-3.26-.28l-.28-.31V80.35l.31-.28q2.73.17,8.38.17,2.34,0,6.74-.08l5.07-.08m-20.19-2.41a2.41,2.41,0,0,0-1.62.63l-.31.28a2.42,2.42,0,0,0-.79,1.78v1.84a2.41,2.41,0,0,0,.63,1.62l.28.31a2.41,2.41,0,0,0,1.64.79l2.08.14c.12,1.17.22,3.35.22,7.39v14.73c0,4.05-.1,6.23-.22,7.39l-2.05.14a2.41,2.41,0,0,0-1.56.7l-.31.31a2.42,2.42,0,0,0-.71,1.71v1.86a2.41,2.41,0,0,0,.8,1.79l.28.25a2.41,2.41,0,0,0,1.62.62h.16c1.67-.11,4.5-.16,8.42-.16,3.49,0,6.52.06,9,.16h.11a2.41,2.41,0,0,0,1.71-.71l.28-.28a2.41,2.41,0,0,0,.71-1.71v-1.84a2.41,2.41,0,0,0-.71-1.71l-.31-.31a2.41,2.41,0,0,0-1.56-.7l-2.65-.17c-.11-1.18-.21-3.35-.21-7.36V103a17.37,17.37,0,0,0,3.57.38,16,16,0,0,0,10.37-3.77,13.3,13.3,0,0,0,4.79-10.82,11.87,11.87,0,0,0-1.5-6.06c-2-3.37-6-5.07-12-5.07l-5.11.08c-2.92.06-5.17.08-6.69.08-3.7,0-6.47-.05-8.23-.16h-.15m15,7.83c.68-.07,1-.08,1.1-.08,2.75,0,4.58.91,4.58,5.36a6.11,6.11,0,0,1-1.12,4,3.22,3.22,0,0,1-2.67,1.14,4.48,4.48,0,0,1-1.38-.27,2.42,2.42,0,0,0-.58-.12V92.43c0-3.64,0-5.74.08-6.95" transform="translate(-38.1 -46.29)"/><path class="cls-2" d="M276.56,92.1l.58.36q-.36,4.18-.36,8.55v8.74q0,5.87.33,6.65a.84.84,0,0,0,.56.5,16.94,16.94,0,0,0,2.9.33l.31.28v1.7l-.28.28q-4.18-.14-5.26-.14-.92,0-2.73.07t-2.7.07l-.22-.22q.22-2.28.22-4.34a64.05,64.05,0,0,0-5.07,4.62,10.7,10.7,0,0,1-3.87.7,8.3,8.3,0,0,1-5.93-2,7.7,7.7,0,0,1-2.17-5.89q0-.47.06-2t.06-3V103.8q0-5.51-.42-6.41a1.47,1.47,0,0,0-1.2-.7q-.33-.06-2.45-.14l-.28-.28V94.72l.28-.31a46.61,46.61,0,0,0,10.78-2.31l.61.36q-.36,4.62-.36,8.55v5.43a35.08,35.08,0,0,0,.25,5.21,4,4,0,0,0,1.32,2.53,4.26,4.26,0,0,0,2.8.86,5.73,5.73,0,0,0,3.82-1.39,4.47,4.47,0,0,0,1.64-3.17q.06-1.36.06-1.7v-5q0-5.46-.42-6.41a1.39,1.39,0,0,0-1.17-.7q-.34-.06-2.45-.14l-.31-.28V94.72l.31-.31a47,47,0,0,0,10.78-2.31m0-2.41a2.4,2.4,0,0,0-.77.13A44.85,44.85,0,0,1,265.57,92a2.41,2.41,0,0,0-1.49.7l-.31.31a2.41,2.41,0,0,0-.71,1.71v1.56a2.41,2.41,0,0,0,.79,1.78l.31.28a2.42,2.42,0,0,0,1.53.63l1.58.07c.07.75.14,2.16.14,4.76v5c0,.1,0,.45-.05,1.6a2,2,0,0,1-.82,1.45,3.31,3.31,0,0,1-2.23.8,2.12,2.12,0,0,1-1.26-.31,1.73,1.73,0,0,1-.48-1.07,31.2,31.2,0,0,1-.22-4.81V101c0-2.54.12-5.35.36-8.36a2.41,2.41,0,0,0-1.18-2.26l-.61-.36a2.41,2.41,0,0,0-2-.21A44.43,44.43,0,0,1,248.69,92a2.41,2.41,0,0,0-1.57.78l-.28.31a2.41,2.41,0,0,0-.63,1.62v1.56a2.41,2.41,0,0,0,.71,1.71l.28.28a2.41,2.41,0,0,0,1.61.7l1.61.07c.07.75.14,2.15.14,4.76v3.56c0,.91,0,1.87-.05,2.86s-.06,1.73-.06,2.09a10,10,0,0,0,2.93,7.64,10.65,10.65,0,0,0,7.59,2.7,13.12,13.12,0,0,0,4.74-.86,2.41,2.41,0,0,0,.82-.53l1-1a2.41,2.41,0,0,0,.46.66l.22.22a2.41,2.41,0,0,0,1.71.71c.62,0,1.53,0,2.79-.07s2-.07,2.64-.07,2.44,0,5.18.14h.08a2.41,2.41,0,0,0,1.71-.71l.28-.28a2.41,2.41,0,0,0,.7-1.7v-1.7a2.41,2.41,0,0,0-.79-1.78l-.31-.28a2.41,2.41,0,0,0-1.47-.62l-1.42-.11c-.05-.81-.11-2.3-.11-5V101c0-2.84.12-5.64.35-8.34a2.41,2.41,0,0,0-1.13-2.26l-.58-.36a2.41,2.41,0,0,0-1.27-.36" transform="translate(-38.1 -46.29)"/><path class="cls-2" d="M294.57,92.1l.61.36-.06,5.46q1.73-2,4.18-4.68a4.28,4.28,0,0,1,3.12-1.11,5.2,5.2,0,0,1,2,.33l-.19,5q0,1.23-.11,2.78l-1.17.36a4.16,4.16,0,0,0-3.62-1.89,4.27,4.27,0,0,0-3.45,1.67,4.74,4.74,0,0,0-.84,3v6.52q0,2,.19,5.65a1.53,1.53,0,0,0,.59,1.34,13.41,13.41,0,0,0,3.87.42l.28.25v1.7l-.28.28q-4.09-.17-8.13-.17-5,0-7.6.19l-.28-.28v-1.7l.28-.28a10.18,10.18,0,0,0,3.31-.42q.56-.25.61-1.34.2-3.62.2-7.77v-4q0-5.57-.42-6.41a1.47,1.47,0,0,0-1.2-.7q-.33-.06-2.42-.14l-.28-.28V94.72l.28-.31a47.86,47.86,0,0,0,10.55-2.31m0-2.41a2.4,2.4,0,0,0-.76.12,45.68,45.68,0,0,1-10,2.2,2.42,2.42,0,0,0-1.56.78l-.28.31a2.41,2.41,0,0,0-.63,1.62v1.56A2.41,2.41,0,0,0,282,98l.28.28a2.41,2.41,0,0,0,1.61.71l1.58.07c.07.74.14,2.15.14,4.76v4c0,2.47-.05,4.83-.16,7-.37,0-.89.07-1.62.09a2.41,2.41,0,0,0-1.63.7l-.28.28a2.41,2.41,0,0,0-.71,1.71v1.7A2.41,2.41,0,0,0,282,121l.28.28a2.41,2.41,0,0,0,1.71.71h.18c1.67-.13,4.17-.19,7.42-.19,2.64,0,5.34.06,8,.16h.1a2.41,2.41,0,0,0,1.7-.7l.28-.28a2.41,2.41,0,0,0,.71-1.71v-1.7a2.41,2.41,0,0,0-.8-1.79l-.28-.25a2.41,2.41,0,0,0-1.53-.62c-1,0-1.69-.08-2.16-.12-.11-2.06-.16-3.7-.16-4.88v-6.52a2.73,2.73,0,0,1,.3-1.52,1.88,1.88,0,0,1,1.58-.78,1.76,1.76,0,0,1,1.64.85,2.41,2.41,0,0,0,2.7.93l1.17-.36a2.41,2.41,0,0,0,1.7-2.18c.06-1,.09-2,.11-2.86l.19-4.92a2.41,2.41,0,0,0-1.49-2.33,7.6,7.6,0,0,0-2.9-.52,6.63,6.63,0,0,0-4.8,1.8l-.1.1-.06.07a2.41,2.41,0,0,0-1.05-1.29L295.8,90a2.41,2.41,0,0,0-1.23-.34" transform="translate(-38.1 -46.29)"/><path class="cls-2" d="M319.67,92.38q5,0,7.71,2.87t2.78,8.49q0,.47,0,1.42l-.31.39a38.29,38.29,0,0,1-9.75,1l-3.29,0-3.31,0A10.51,10.51,0,0,0,316,113.4a8.13,8.13,0,0,0,6.46,2.87,14.7,14.7,0,0,0,6.35-1.84l.67.81L328.27,118a16.11,16.11,0,0,1-8.83,2.59q-6.27,0-9.73-3.54T306.24,107q0-7.77,3.7-10.64,5.12-4,9.72-4M319,103.82a26.59,26.59,0,0,0,3.84-.25c0-.26,0-.45,0-.56q0-7.52-4.68-7.52-4.93,0-4.93,7.46v.61a43.78,43.78,0,0,0,5.74.25M319.67,90c-3.59,0-7.36,1.5-11.19,4.46-3.08,2.39-4.64,6.61-4.64,12.55,0,5,1.4,9,4.16,11.77s6.62,4.26,11.45,4.26a18.57,18.57,0,0,0,10.12-3,2.42,2.42,0,0,0,.91-1.05l1.23-2.76a2.41,2.41,0,0,0-.35-2.52l-.67-.81a2.41,2.41,0,0,0-2.94-.62,12.51,12.51,0,0,1-5.27,1.58,5.71,5.71,0,0,1-4.64-2,7.38,7.38,0,0,1-1.56-2.81h.56l3.24,0a40.19,40.19,0,0,0,10.38-1.09,2.41,2.41,0,0,0,1.26-.84l.31-.39a2.41,2.41,0,0,0,.51-1.42q0-1,0-1.49c0-4.31-1.16-7.73-3.44-10.15S323.66,90,319.67,90m-3.9,11.39c.33-3.45,1.73-3.45,2.45-3.45.55,0,1.88,0,2.2,3.47q-.67,0-1.39,0c-1.38,0-2.44,0-3.26-.06" transform="translate(-38.1 -46.29)"/><path class="cls-2" d="M332.89,85.75h0l.1,0-.08,0" transform="translate(-38.1 -46.29)"/><path class="cls-2" d="M331.61,91.2l.48.1.41-.25,3.36-2,.75-.46.25-.15.52.13a27.29,27.29,0,0,0,4.51.64l.79,0h.15c5.49.12,10.42-1.52,13.51-4.51l.08-.07v0l.07-.06.13-.13a5.46,5.46,0,0,1,3,.16l.08,0,1.15.33.67.19L361.39,84l-.1-.75A9.08,9.08,0,0,0,361,82a6.45,6.45,0,0,0-3-4.06,4.6,4.6,0,0,0-2.79-.4h-.09l-.09,0-2.82.86c.83-3.61,2.25-14.59-7.57-25.05-.42-.46-.86-.91-1.32-1.35a41.69,41.69,0,0,0-3.89-3.3l-3.19-2.4,1.29,3.78c.08.24.16.48.23.72l-.54-.41L334,48l1.28,3.78c.13.39.25.79.36,1.17s.2.8.27,1.19c.72,3.65.07,7-1.24,12.89-1.62,7.35,2.18,14.86,2.79,16L333,84.43h0l-.47.16-1.68.54-5.42.94-1.34.23-2.4.42-3.7.64s-1.56.39.1.4c3.85,0,10.66.5,13.54,3.45" transform="translate(-38.1 -46.29)"/><path class="cls-2" d="M332.87,85.76h0l.07,0Z" transform="translate(-38.1 -46.29)"/><text class="cls-3" transform="translate(174.7 100.66)"><tspan class="cls-4">A</tspan><tspan x="15.08" y="0">t </tspan><tspan class="cls-5" x="29.61" y="0">T</tspan><tspan x="42.19" y="0">he </tspan><tspan class="cls-6" x="74.49" y="0">R</tspan><tspan class="cls-7" x="89.65" y="0">iver</tspan></text></svg>