<svg xmlns="http://www.w3.org/2000/svg" viewBox="0 0 2137.91 325.65"><defs><style>.cls-1{fill:none;stroke:#000;stroke-linecap:round;stroke-linejoin:round;stroke-width:2px}.cls-2{fill:#64a9cd}.cls-3{fill:#fbfcfd}</style></defs><title>virginia-eye-logo</title><g id="Layer_0_copy_3_Image" data-name="Layer 0 copy 3 Image"><path class="cls-1" d="M2136.39 218.56h-847m-49.58 0H792m-143.63 0H386.83" transform="translate(-.42 -.42)"/><path d="M485.45 183.62q-5-12.8-12.15-30.81t-15.3-38q-8.14-20-16.71-40.8T424.9 34.54q3 .44 5.86.76a47.37 47.37 0 0 0 5.42.33 47.42 47.42 0 0 0 5.42-.33q2.82-.33 5.86-.76 4.78 14.32 10.54 30.05t12.15 32q6.4 16.28 13.13 33t13.67 33.2q3.91-8.9 8.46-19.86t9.22-22.78q4.66-11.82 9.22-24.09t8.79-23.54q4.23-11.28 7.7-21t5.86-16.93a37.2 37.2 0 0 0 8 1.08 37.24 37.24 0 0 0 8-1.08q-16.86 37.71-32.49 74.81t-29.95 74.21a57.22 57.22 0 0 0-7.16-.43 48.13 48.13 0 0 0-7.15.44zm82.89-140.84a11.07 11.07 0 1 1 18.88 7.81 11.07 11.07 0 0 1-18.88-7.81zm3 78.34q0-9.76-.33-20.51t-1.41-20.07a44.49 44.49 0 0 0 19.53 0q-1.09 9.33-1.41 20.07t-.33 20.51v22.57q0 9.76.33 20.51t1.41 19.42q-5-.44-9.76-.43t-9.77.43q1.08-8.68 1.41-19.42t.33-20.51zm91.5-25.17a19.55 19.55 0 0 0-6.4-1.08 18.29 18.29 0 0 0-9.33 2.39 21.71 21.71 0 0 0-6.94 6.4 30.44 30.44 0 0 0-4.34 9.55 44.46 44.46 0 0 0-1.52 11.79v23.9q0 14.54.11 22.24a106.93 106.93 0 0 0 .76 12.48 86.45 86.45 0 0 0-8.68-.43 90.84 90.84 0 0 0-9.11.43q.65-7.38.76-20.07t.11-31.14v-6.94q0-8.46-.11-19.53t-.76-25.39q2.39.44 4.56.76a30.69 30.69 0 0 0 4.56.33 27.88 27.88 0 0 0 4.12-.33q2.17-.33 4.56-.76-.87 7.81-1 12.37t-.11 8.68l.43.22q12.8-23.44 28.64-23.44a22.78 22.78 0 0 1 3.36.22 17.39 17.39 0 0 1 3.58 1.08 24.29 24.29 0 0 0-1.3 7.92q-.22 5.32-.22 9.66l-1.52 1.08a9.73 9.73 0 0 0-4.21-2.39zm12.48 17.79A35.31 35.31 0 0 1 678.58 98a30.25 30.25 0 0 1 9-11 40.44 40.44 0 0 1 13.24-6.51 57.1 57.1 0 0 1 15.95-2.17q4.12 0 7.92.22t9.66.65q5 .44 8.9.65t6.29.22q12.15 0 17.58-1.08a21.14 21.14 0 0 0-.33 2.28c-.07.8-.11 1.56-.11 2.28s0 1.49.11 2.28a20.89 20.89 0 0 0 .33 2.28q-6.3-.43-12.26-1T743 86.4l-.43.43a27.19 27.19 0 0 1 10.85 11.39 33.42 33.42 0 0 1 4.12 15.95q0 16.28-11 25.5t-29.4 9.22q-3 0-6-.22t-6-.22a11.11 11.11 0 0 0-7.27 2.82 8.94 8.94 0 0 0-3.36 7.16q0 5.65 2.71 8.25t10.09 2.82q6.07.22 11.94.33t11.93.33a63.29 63.29 0 0 1 17 2.39 33.1 33.1 0 0 1 11.5 5.86 22.68 22.68 0 0 1 6.51 8.46 26 26 0 0 1 2.06 10.42 43.67 43.67 0 0 1-2.93 15.41 40.09 40.09 0 0 1-9.11 14.11 48.47 48.47 0 0 1-15.95 10.42q-9.76 4.12-23.44 4.12-21.05 0-33.2-8.35t-12.15-22.89a25.94 25.94 0 0 1 2.06-10.42 31.58 31.58 0 0 1 5.32-8.46 25.78 25.78 0 0 1 7.38-5.86 37.82 37.82 0 0 1 8.46-3.25v-.43a19 19 0 0 1-10.2-6.51 17.37 17.37 0 0 1-3.47-10.85 15.76 15.76 0 0 1 1.41-6.73 21.42 21.42 0 0 1 3.58-5.42 18.65 18.65 0 0 1 5-3.91 17.72 17.72 0 0 1 5.42-2v-.43A36.5 36.5 0 0 1 681 133.6q-5.68-7.92-5.68-19.86zm77 92.88q0-13-7.6-18.23t-25.17-5.21q-16.28 0-25.17 5.32t-8.9 19.21a28.92 28.92 0 0 0 2.5 12.59 23 23 0 0 0 6.73 8.46 27.78 27.78 0 0 0 10.09 4.77 50.09 50.09 0 0 0 12.62 1.47 48 48 0 0 0 12.8-1.74 35.39 35.39 0 0 0 11.18-5.21 27.24 27.24 0 0 0 7.92-8.79 25.2 25.2 0 0 0 3.04-12.64zm-11.72-94q0-13.67-6.51-20.83T717 84.67q-11.72 0-18.23 7.92t-6.51 21.16q0 13.67 6 21.59t18.55 7.92a21.63 21.63 0 0 0 10.74-2.5 21.89 21.89 0 0 0 7.38-6.73 30.05 30.05 0 0 0 4.34-9.77 46.89 46.89 0 0 0 1.37-11.6zm42.79-69.84a11.07 11.07 0 1 1 18.88 7.81 11.07 11.07 0 0 1-18.88-7.81zm3 78.34q0-9.76-.33-20.51t-1.41-20.07a44.49 44.49 0 0 0 19.53 0q-1.09 9.33-1.41 20.07t-.33 20.51v22.57q0 9.76.33 20.51t1.41 19.42q-5-.44-9.76-.43t-9.77.43q1.08-8.68 1.41-19.42t.33-20.51zM896.88 98q-6.3-8.35-17.36-8.35-15.19 0-22.24 9.33t-7.05 26.26v18.45q0 9.76.33 20.51t1.44 19.42q-5-.44-9.77-.43t-9.77.43q1.08-8.68 1.41-19.42t.33-20.51v-22.57q0-9.76-.33-20.51t-1.41-20.07a58.11 58.11 0 0 0 9.77 1.08 24.54 24.54 0 0 0 3.8-.33l4.88-.76q-.65 8.68-.65 17.36h.43a45.34 45.34 0 0 1 14.51-14.42q8.46-5.1 20.18-5.1a45.26 45.26 0 0 1 12.26 1.74 29.44 29.44 0 0 1 11.18 6A30.81 30.81 0 0 1 917 97.58q3.14 7.27 3.15 18.55 0 9.33-.43 19.2t-.43 20.94v14.1q0 3.47.11 6.83t.33 6.4a90.94 90.94 0 0 0-9.11-.43 88.57 88.57 0 0 0-8.9.43q.43-11.28 1-23.22t.54-24.52v-13.22q-.09-16.27-6.38-24.64zM947 42.78a11.07 11.07 0 1 1 18.88 7.81A11.07 11.07 0 0 1 947 42.78zm3 78.34q0-9.76-.33-20.51t-1.41-20.07a44.49 44.49 0 0 0 19.53 0q-1.09 9.33-1.41 20.07t-.33 20.51v22.57q0 9.76.33 20.51t1.41 19.42q-5-.44-9.77-.43t-9.77.43q1.08-8.68 1.41-19.42t.33-20.51zM998.22 91q9.76-7.37 18-10a55.88 55.88 0 0 1 16.93-2.6 43.1 43.1 0 0 1 14.32 2.28 31.15 31.15 0 0 1 11.07 6.51 30.25 30.25 0 0 1 7.16 10.2 32.48 32.48 0 0 1 2.6 13.13q0 12.37-.43 24.63t-.43 25.93q0 2.6.11 5.53a16.2 16.2 0 0 0 1 5.21 9.89 9.89 0 0 0 2.5 3.8 6.92 6.92 0 0 0 4.88 1.52c.72 0 1.48 0 2.28-.11a5.33 5.33 0 0 0 2.28-.76V181a25.62 25.62 0 0 1-6 1.74 44.46 44.46 0 0 1-7.92.65q-6.95 0-10.63-3.58a14.75 14.75 0 0 1-4.34-9.22 58.34 58.34 0 0 1-15.41 11.5q-7.6 3.69-18.66 3.69a37.85 37.85 0 0 1-10.63-1.52 24.32 24.32 0 0 1-9.22-5 27.3 27.3 0 0 1-6.51-8.35 24.2 24.2 0 0 1-2.5-11.18q0-13 8.14-20.18t22.46-9.55q11.72-2 18.34-3.36a46 46 0 0 0 9.77-2.93q3.14-1.52 3.8-3.58a18 18 0 0 0 .65-5.32 41.12 41.12 0 0 0-1.3-10.42 24.2 24.2 0 0 0-4.12-8.68 20.85 20.85 0 0 0-7.38-6 24.54 24.54 0 0 0-11.07-2.28 34.43 34.43 0 0 0-16.17 3.91 25.74 25.74 0 0 0-11.18 10.85h-2.39zm53.6 38.63a54.57 54.57 0 0 1-8.57 2.17q-4.88.87-9.87 1.84a94.49 94.49 0 0 0-9.87 2.5 32.1 32.1 0 0 0-8.68 4.12 20.07 20.07 0 0 0-6.08 6.51 19.61 19.61 0 0 0-2.28 10q0 10.2 5.86 15.41a19.14 19.14 0 0 0 13 5.21 26.62 26.62 0 0 0 15.08-4.56 34.23 34.23 0 0 0 10.52-10.63zm99.92-67.32q-.54-13.88-1.19-27.78 9.76.44 19.42.76t19.42.33q9.76 0 19.31-.33t19.31-.76a32.91 32.91 0 0 0 0 13q-6.95-.43-12.69-.87t-12.15-.87q-6.4-.43-14-.76t-18.23-.33q-.22 6.95-.54 13.24t-.33 14.32q0 8.46.11 16.49t.11 12.15q9.55 0 17.14-.22t13.89-.54q6.29-.33 11.61-.65t10.09-.76a34.27 34.27 0 0 0-.65 6.73 33.15 33.15 0 0 0 .63 6.54q-5.64-.65-13.13-1.08t-15-.54l-14.11-.22q-6.62-.11-10.52-.11 0 2-.11 4.23t-.11 5.75v21.48q0 12.37.11 20.4t.33 12.15h15.19q8.24 0 16.17-.33t15-.87a96.8 96.8 0 0 0 12.26-1.63 15.45 15.45 0 0 0-.54 3.36c-.08 1.23-.11 2.35-.11 3.36a20.13 20.13 0 0 0 .65 5.64q-9.76-.44-19.42-.43h-39.36q-9.76 0-19.75.43.65-13.89 1.19-27.67t.54-28.1v-37.3q.01-14.32-.54-28.21zM1279 183.83l-6.18-15.19q-3.8-9.33-8.14-19.64t-8.9-21l-8.57-20.18q-4-9.44-7.05-16.6t-4.56-10.63q2.82.44 5.21.76a35.16 35.16 0 0 0 9.55 0q2.38-.33 5.21-.76 6.72 20.83 15 41.23t17.36 42.1q9.11-19.09 17.47-40.8t14.86-42.53a24.17 24.17 0 0 0 14.32 0q-1.52 3-4.88 10.31l-8 17.36q-4.67 10.09-10.2 22.35t-11.28 25.17q-5.75 12.91-11.39 25.61t-10.42 24.09q-4.78 11.39-8.35 20.62t-5.32 14.65a25.63 25.63 0 0 0-14.76 0 440.76 440.76 0 0 0 29.02-56.92zm55.35-48.39q0-26.69 12.7-41.88t37-15.19q11.5 0 19.86 3.58a41.46 41.46 0 0 1 14 9.55 37.71 37.71 0 0 1 8.36 14 53.26 53.26 0 0 1 2.71 17.14q0 2.17-.11 4.23t-.33 4.23l-23.22-.43q-11.5-.21-23.22-.22-7.16 0-14.21.22l-14.21.43a17.94 17.94 0 0 0-.22 3.26v2.82a49.08 49.08 0 0 0 2.5 15.84 35.94 35.94 0 0 0 7.27 12.69 34.75 34.75 0 0 0 11.72 8.46 38.54 38.54 0 0 0 16.06 3.15 35 35 0 0 0 8.9-1.19 50.19 50.19 0 0 0 8.9-3.25 48.43 48.43 0 0 0 8.14-4.88 41.29 41.29 0 0 0 6.62-6.08l1.08.65-1.3 10.63a60 60 0 0 1-16.17 8.9 55.81 55.81 0 0 1-20.07 3.69 61 61 0 0 1-21.37-3.58 47.28 47.28 0 0 1-16.74-10.42 46.75 46.75 0 0 1-10.85-16.17 53 53 0 0 1-3.8-20.18zm50.13-50.13a23.91 23.91 0 0 0-13.56 3.69 31.66 31.66 0 0 0-9.11 9.22 43.87 43.87 0 0 0-5.43 12.15 64.22 64.22 0 0 0-2.28 12.48l14 .43q7.27.22 14.21.22 7.16 0 14.54-.22l14.32-.43a83.46 83.46 0 0 0-1-12.37 38.6 38.6 0 0 0-3.91-12.15 25.94 25.94 0 0 0-8.14-9.33q-5.18-3.68-13.64-3.68zm114.47-22.67q-.54-13.78-1.19-28.1 2.82.44 5.42.76a42 42 0 0 0 5.21.33 42 42 0 0 0 5.21-.33q2.6-.33 5.42-.76-.65 14.32-1.19 28.1t-.54 28.1v37.32q0 14.32.54 28.21t1.19 27.34q-5-.44-10.63-.43t-10.63.43q.65-13.45 1.19-27.34t.54-28.21V90.74q0-14.32-.54-28.1zM1610.81 98q-6.3-8.35-17.36-8.35-15.19 0-22.24 9.33t-7.05 26.26v18.45q0 9.76.33 20.51t1.41 19.42q-5-.44-9.76-.43t-9.77.43q1.08-8.68 1.41-19.42t.33-20.51v-22.57q0-9.76-.33-20.51t-1.41-20.07a58.11 58.11 0 0 0 9.77 1.08 24.53 24.53 0 0 0 3.8-.33l4.88-.76q-.65 8.68-.65 17.36h.43a45.33 45.33 0 0 1 14.54-14.43q8.46-5.1 20.18-5.1a45.26 45.26 0 0 1 12.26 1.74 29.44 29.44 0 0 1 11.18 6 30.82 30.82 0 0 1 8.14 11.5q3.14 7.27 3.15 18.55 0 9.33-.43 19.2t-.43 20.94v14.1q0 3.47.11 6.83t.33 6.4a90.93 90.93 0 0 0-9.11-.43 88.55 88.55 0 0 0-8.9.43q.43-11.28 1-23.22t.54-24.52v-13.24q-.06-16.27-6.35-24.64zm49.8 70.21a32.47 32.47 0 0 0 5.42 4.88 30.46 30.46 0 0 0 7.16 3.8 24 24 0 0 0 8.57 1.52 24.26 24.26 0 0 0 7.92-1.3 21.63 21.63 0 0 0 6.73-3.69 17.08 17.08 0 0 0 4.67-6.08 19.67 19.67 0 0 0 1.74-8.46q0-6.72-3.8-10.31a29.93 29.93 0 0 0-9.44-5.86 100 100 0 0 0-12.37-4 51.78 51.78 0 0 1-12.37-4.88 29 29 0 0 1-9.44-8.35q-3.8-5.21-3.8-14.32A35 35 0 0 1 1654 98a28.86 28.86 0 0 1 6.94-10.31 32.54 32.54 0 0 1 11.28-6.84 44.17 44.17 0 0 1 15.41-2.5 37.33 37.33 0 0 1 13.56 2.17q5.53 2.17 10.52 3.91a48.11 48.11 0 0 0-3.25 8 57.32 57.32 0 0 0-2 7.38h-2.6a20.6 20.6 0 0 0-6.73-9.33 18.79 18.79 0 0 0-12.37-4.12 20.51 20.51 0 0 0-6.51 1.08 18 18 0 0 0-5.86 3.25 17.29 17.29 0 0 0-4.34 5.64 18.23 18.23 0 0 0-1.74 8.25q0 6.95 3.8 10.74a26.58 26.58 0 0 0 9.44 6 99.74 99.74 0 0 0 12.37 3.8 54.66 54.66 0 0 1 12.37 4.56 26.9 26.9 0 0 1 9.44 8.14q3.79 5.21 3.8 14.32a30.08 30.08 0 0 1-2.71 12.37 34.71 34.71 0 0 1-7.81 11 35.84 35.84 0 0 1-12.26 7.59 45.73 45.73 0 0 1-16.28 2.71 60.85 60.85 0 0 1-16.71-2 52.15 52.15 0 0 1-11.28-4.56 56.62 56.62 0 0 0 2.71-7.7 30.46 30.46 0 0 0 1.41-8.14h2.6a23.28 23.28 0 0 0 3.41 4.8zm93.2-116.75q-.65 8.25-1 16.17t-.76 15.95q2.38 0 8.9-.11t14.1-.54a8.71 8.71 0 0 0-.22 2.39v4.56a7.58 7.58 0 0 0 .22 2.17q-2.82-.21-5.86-.33t-6.51-.11h-10.63q-.22.87-.54 6.94T1751 113q-.22 8.36-.33 17.47t-.11 16.27q0 6.08.33 11.94a35.68 35.68 0 0 0 2.06 10.52 17 17 0 0 0 5.21 7.49q3.47 2.82 10 2.82a33.22 33.22 0 0 0 4.67-.43 36.37 36.37 0 0 0 5.1-1.08v5.21q-3.69.65-8.14 1.63a40 40 0 0 1-8.57 1q-13.67 0-20.18-6.73t-6.51-19.75q0-5.86.22-12.69t.54-15q.33-8.14.54-18t.22-22h-6.94c-1.16 0-2.39 0-3.69.11s-2.68.18-4.12.33q.21-1.3.33-2.5c.07-.79.11-1.63.11-2.5s0-1.44-.11-2.17-.18-1.44-.33-2.17q9.77.65 14.32.65-.22-4.34-.33-10.85t-.54-13.45l18-7.59zm34.5-8.68a11.07 11.07 0 1 1 18.88 7.81 11.07 11.07 0 0 1-18.88-7.81zm3 78.34q0-9.76-.33-20.51t-1.41-20.07a44.49 44.49 0 0 0 19.53 0q-1.09 9.33-1.41 20.07t-.33 20.51v22.57q0 9.76.33 20.51t1.41 19.42q-5-.44-9.77-.43t-9.76.43q1.08-8.68 1.41-19.42t.33-20.51zm65.79-69.66q-.65 8.25-1 16.17t-.76 15.95q2.38 0 8.9-.11t14.11-.54a8.71 8.71 0 0 0-.22 2.39v4.56a7.58 7.58 0 0 0 .22 2.17q-2.82-.21-5.86-.33t-6.51-.11h-10.63a69.55 69.55 0 0 0-.54 6.94q-.33 6.08-.54 14.43t-.33 17.47q-.11 9.11-.11 16.27 0 6.08.33 11.94a35.68 35.68 0 0 0 2.06 10.52 17 17 0 0 0 5.21 7.49q3.47 2.82 10 2.82a33.22 33.22 0 0 0 4.67-.43 36.4 36.4 0 0 0 5.1-1.08v5.21q-3.69.65-8.14 1.63a40 40 0 0 1-8.57 1q-13.67 0-20.18-6.73t-6.51-19.75q0-5.86.22-12.69t.54-15q.33-8.14.54-18t.22-22h-6.94c-1.16 0-2.39 0-3.69.11s-2.68.18-4.12.33q.21-1.3.33-2.5c.07-.79.11-1.63.11-2.5s0-1.44-.11-2.17-.18-1.44-.33-2.17q9.76.65 14.32.65-.22-4.34-.33-10.85t-.56-13.49l18-7.59zm31.9 99.39q0-11.5.33-19.64t.33-16.17q0-7.59-.11-16.49t-.33-18a47.69 47.69 0 0 0 9.11 1.08 47.1 47.1 0 0 0 8.9-1.08q-1.09 13-1.63 28.54t-.54 31.79q0 11.29 2 17.25a22.58 22.58 0 0 0 12.48 14.76 24.69 24.69 0 0 0 11 2.28q9.11 0 15.19-4a24.63 24.63 0 0 0 8.9-9.87q1.52-3.69 2.39-6.29a37.65 37.65 0 0 0 1.41-6.94 113.8 113.8 0 0 0 .65-11.72q.11-7.37.11-20.18V97.9q0-4.77-.11-9.11t-.33-8.25q2.38.44 4.56.76a32 32 0 0 0 9.11 0q2.17-.33 4.34-.76-1.09 16.93-1.3 32.66t-.22 33.31q0 9.77.22 19.1t.65 18a82.63 82.63 0 0 0-16.93 0q.21-2 .33-4.12t.11-4.56v-9.33h-.43q-5.65 10.42-14.54 15.3a39.5 39.5 0 0 1-19.31 4.88q-16.93 0-26.58-9t-9.76-25.93zm131.72-99.39q-.65 8.25-1 16.17t-.72 15.95q2.38 0 8.9-.11t14.11-.54a8.66 8.66 0 0 0-.22 2.39v4.56A7.54 7.54 0 0 0 2042 92q-2.82-.21-5.86-.33t-6.51-.11H2019a69.55 69.55 0 0 0-.54 6.94q-.33 6.08-.54 14.43t-.33 17.47q-.11 9.11-.11 16.27 0 6.08.33 11.94a35.74 35.74 0 0 0 2.06 10.52 17 17 0 0 0 5.21 7.49q3.47 2.82 10 2.82a33.19 33.19 0 0 0 4.67-.43 36.34 36.34 0 0 0 5.1-1.08v5.21q-3.69.65-8.14 1.63a40 40 0 0 1-8.57 1q-13.67 0-20.18-6.73t-6.51-19.75q0-5.86.22-12.69t.54-15q.33-8.14.54-18t.22-22H1996q-1.74 0-3.69.11c-1.3.07-2.68.18-4.12.33q.21-1.3.33-2.5c.07-.79.11-1.63.11-2.5s0-1.44-.11-2.17-.18-1.44-.33-2.17q9.76.65 14.32.65-.22-4.34-.33-10.85t-.54-13.45l18-7.59zm23 83.98q0-26.69 12.7-41.88t37-15.19q11.5 0 19.86 3.58a41.47 41.47 0 0 1 14 9.55 37.71 37.71 0 0 1 8.35 14 53.24 53.24 0 0 1 2.71 17.14q0 2.17-.11 4.23t-.33 4.23l-23.22-.43q-11.5-.21-23.22-.22-7.16 0-14.21.22l-14.21.43a17.94 17.94 0 0 0-.22 3.26v2.82a49.08 49.08 0 0 0 2.5 15.84 35.94 35.94 0 0 0 7.27 12.69 34.75 34.75 0 0 0 11.72 8.46 38.53 38.53 0 0 0 16.06 3.15 35 35 0 0 0 8.9-1.19 50.22 50.22 0 0 0 8.9-3.25 48.43 48.43 0 0 0 8.14-4.88 41.34 41.34 0 0 0 6.62-6.08l1.08.65-1.3 10.63a60 60 0 0 1-16.17 8.9 55.81 55.81 0 0 1-20.07 3.69 61 61 0 0 1-21.37-3.58 47.3 47.3 0 0 1-16.71-10.42 46.76 46.76 0 0 1-10.85-16.17 53 53 0 0 1-3.82-20.18zm50.13-50.13a23.91 23.91 0 0 0-13.56 3.69 31.66 31.66 0 0 0-9.11 9.22 43.87 43.87 0 0 0-5.43 12.15 64.22 64.22 0 0 0-2.28 12.48l14 .43q7.27.22 14.21.22 7.16 0 14.54-.22l14.32-.43a83.46 83.46 0 0 0-1-12.37 38.63 38.63 0 0 0-3.91-12.15 25.94 25.94 0 0 0-8.14-9.33q-5.18-3.68-13.64-3.68zM520 274.32q0-4.62-.17-9.1t-.39-9q1.82.14 3.71.25t3.71.11q1.82 0 3.71-.17t3.71-.18a33.71 33.71 0 0 1 5.67.46 14.33 14.33 0 0 1 4.69 1.61 8.8 8.8 0 0 1 3.22 3.12 9.3 9.3 0 0 1 1.19 4.9 10.39 10.39 0 0 1-3.25 8.12 18.52 18.52 0 0 1-8.5 4.13v.14q6.23.28 9.83 3t3.6 8.75a12.5 12.5 0 0 1-1.61 6.58 13 13 0 0 1-4.2 4.3 17.26 17.26 0 0 1-5.71 2.31 29.61 29.61 0 0 1-6.19.67q-1.68 0-3.4-.07t-3.4-.07h-3.4q-1.72 0-3.4.14.21-4.48.39-8.93t.17-9.06zm9.52 3.43a24.37 24.37 0 0 0 4.86-.49 13.2 13.2 0 0 0 4.31-1.64 8.93 8.93 0 0 0 3-3.08 9.33 9.33 0 0 0 1.16-4.87 8.72 8.72 0 0 0-1.05-4.58 7.65 7.65 0 0 0-2.66-2.66 10.22 10.22 0 0 0-3.64-1.26 26.45 26.45 0 0 0-4.06-.31q-1.82 0-3.08.1t-2.24.25q-.14 3.36-.28 6.65t-.14 6.65v5.25zm-3.78 9.73q0 3.57.14 7.07t.28 7.07q1.33.14 3.15.25t3.69.13a12.22 12.22 0 0 0 4.31-.77 10.17 10.17 0 0 0 3.6-2.28 11 11 0 0 0 2.45-3.71 13 13 0 0 0 .91-5 10 10 0 0 0-1.08-4.93 7.61 7.61 0 0 0-3.12-3 14.92 14.92 0 0 0-4.86-1.51 43.58 43.58 0 0 0-6.33-.42h-3.15zm49.65-13.09q0-4.62-.18-9.07t-.38-9.07q2 .14 4 .25t4 .11q2 0 4-.17t4-.18a27.16 27.16 0 0 1 5.6.56 13.65 13.65 0 0 1 4.65 1.85 9.37 9.37 0 0 1 3.15 3.4 12.14 12.14 0 0 1-.35 11 14.06 14.06 0 0 1-3.67 4 18.17 18.17 0 0 1-4.65 2.45 23.35 23.35 0 0 1-4.52 1.16q.84 1.05 2.31 2.94t3.29 4.17q1.82 2.28 3.78 4.76t3.78 4.76q1.82 2.27 3.43 4.17t2.59 2.87a15.63 15.63 0 0 0-2.1-.14H604a14.13 14.13 0 0 0-2 .14q-1.05-1.47-3.19-4.41t-4.73-6.3q-2.59-3.36-5.28-6.69t-4.94-5.63h-2.66v5.11q0 4.62.17 9.1t.39 8.82q-1.61-.14-3.43-.14t-3.43.14q.21-4.34.38-8.82t.18-9.1zm5.74 4a14.16 14.16 0 0 0 2.14.28q1.16.07 2.55.07a22 22 0 0 0 4.52-.49 13.11 13.11 0 0 0 4.31-1.71 10.21 10.21 0 0 0 3.25-3.29 9.66 9.66 0 0 0 1.29-5.21 9 9 0 0 0-1-4.52 8.1 8.1 0 0 0-2.62-2.83 10 10 0 0 0-3.5-1.43 18.62 18.62 0 0 0-3.71-.38q-2.45 0-4.06.1t-2.73.25q-.14 3.85-.28 7.63t-.14 7.56zm49.46-13.06q-.18-4.44-.39-9.07l1.75.25a13.44 13.44 0 0 0 3.36 0l1.75-.25q-.21 4.62-.39 9.07t-.17 9.07v12q0 4.62.17 9.1t.39 8.82q-1.61-.14-3.43-.14t-3.43.14q.21-4.34.39-8.82t.17-9.1v-12q0-4.63-.17-9.07zm54.49 20.86q-9.1-9.77-18.2-19.43-.07 2-.14 5.25t-.07 9v3.64q0 2.17.07 4.55 0 2.38.1 4.83t.14 4.55q.07 2.1.14 3.67t.14 2.14a19.56 19.56 0 0 0-2.45-.14 21.93 21.93 0 0 0-2.59.14q.14-.7.31-2.59t.32-4.51q.14-2.62.31-5.71t.28-6.16q.1-3.08.17-6t.07-5.25v-11.55q0-4.83-.17-7.21h1.12l9.13 9.9q4.86 5.29 9.66 10.43t9.1 9.73q4.31 4.59 7.53 7.81v-9.58q0-7.35-.1-14.32t-.46-13.12a10 10 0 0 0 2.38.35 9.72 9.72 0 0 0 2.24-.35q-.14 1.54-.32 4.62t-.35 6.58q-.18 3.5-.31 6.86t-.14 5.39v9.2q0 2.62.07 5.22 0 2.63.07 4.9t0 4v2.31h-1q-7.95-9.34-17.05-19.15zm82.29-23.91a18.94 18.94 0 0 0-3.5-2.21 22 22 0 0 0-4.27-1.54 20.35 20.35 0 0 0-5-.59 24 24 0 0 0-8.08 1.33 17.25 17.25 0 0 0-6.51 4.09 19.18 19.18 0 0 0-4.34 7 32 32 0 0 0-.17 19.29 18.61 18.61 0 0 0 4.09 7 18.18 18.18 0 0 0 6.58 4.38 23.66 23.66 0 0 0 8.79 1.54q1.47 0 3.08-.14t3.11-.42a22.47 22.47 0 0 0 2.8-.7 10.25 10.25 0 0 0 2.21-1q.07-2.1.1-4.2t0-4.27q0-2.45-.1-4.9t-.25-4.69a17.12 17.12 0 0 0 3.36.35c.51 0 1 0 1.54-.07a7.43 7.43 0 0 0 1.47-.28q-.14 1.61-.21 5.08t-.07 9.13v5.66q-1.47.56-3.67 1.16a43.59 43.59 0 0 1-4.69 1q-2.49.38-5 .7a36.19 36.19 0 0 1-4.52.31 39 39 0 0 1-11.23-1.5 22 22 0 0 1-8.5-4.65 20.84 20.84 0 0 1-5.39-7.84 28.87 28.87 0 0 1-1.89-10.85 27.11 27.11 0 0 1 2-10.6 21.87 21.87 0 0 1 5.53-7.87 24 24 0 0 1 8.65-4.9 35.59 35.59 0 0 1 11.23-1.68 46.52 46.52 0 0 1 6.33.38 34 34 0 0 1 4.9 1 32.8 32.8 0 0 1 3.75 1.33q1.61.7 2.87 1.33a12 12 0 0 0-1 2.52 16 16 0 0 0-.59 2.87H770a18.17 18.17 0 0 0-2.63-2.55zm29.4 3.05q-.18-4.44-.39-9.07l1.75.25a13.43 13.43 0 0 0 3.36 0l1.75-.25q-.21 4.62-.38 9.07t-.18 9.07v12q0 4.62.18 9.1t.38 8.82q-1.61-.14-3.43-.14t-3.43.14q.21-4.34.39-8.82t.17-9.1v-12q0-4.63-.17-9.07zm54.49 20.86q-9.1-9.77-18.2-19.43-.07 2-.14 5.25t-.07 9v3.64q0 2.17.07 4.55 0 2.38.1 4.83t.14 4.55q.07 2.1.14 3.67t.14 2.14a19.57 19.57 0 0 0-2.45-.14 21.92 21.92 0 0 0-2.59.14q.14-.7.31-2.59t.31-4.51q.14-2.62.31-5.71t.28-6.16q.1-3.08.17-6t.07-5.25v-11.55q0-4.83-.18-7.21h1.12l9.14 9.9q4.86 5.29 9.66 10.43t9.1 9.73q4.31 4.59 7.52 7.81v-9.58q0-7.35-.1-14.32t-.46-13.12a10 10 0 0 0 2.38.35 9.72 9.72 0 0 0 2.24-.35q-.14 1.54-.31 4.62t-.35 6.58q-.18 3.5-.31 6.86t-.14 5.39v9.2q0 2.62.07 5.22 0 2.63.07 4.9t0 4v2.31h-1q-7.94-9.34-17.04-19.15zm82.29-23.91a19 19 0 0 0-3.5-2.21 22 22 0 0 0-4.27-1.54 20.35 20.35 0 0 0-5-.59 24 24 0 0 0-8.08 1.33 17.25 17.25 0 0 0-6.51 4.09 19.18 19.18 0 0 0-4.34 7 32 32 0 0 0-.18 19.29 18.61 18.61 0 0 0 4.1 7 18.17 18.17 0 0 0 6.58 4.38 23.66 23.66 0 0 0 8.78 1.54q1.47 0 3.08-.14t3.12-.42a22.44 22.44 0 0 0 2.8-.7 10.22 10.22 0 0 0 2.21-1q.07-2.1.1-4.2t0-4.27q0-2.45-.1-4.9t-.25-4.69a17.12 17.12 0 0 0 3.36.35c.51 0 1 0 1.54-.07a7.43 7.43 0 0 0 1.47-.28q-.14 1.61-.21 5.08t-.07 9.13v5.66q-1.47.56-3.68 1.16a43.54 43.54 0 0 1-4.69 1q-2.49.38-5 .7a36.19 36.19 0 0 1-4.52.31 39 39 0 0 1-11.23-1.5 22 22 0 0 1-8.51-4.65 20.83 20.83 0 0 1-5.39-7.84 28.86 28.86 0 0 1-1.89-10.85 27.1 27.1 0 0 1 2-10.6 21.87 21.87 0 0 1 5.53-7.87 24 24 0 0 1 8.65-4.9 35.59 35.59 0 0 1 11.24-1.68 46.52 46.52 0 0 1 6.33.38 34.07 34.07 0 0 1 4.9 1 32.84 32.84 0 0 1 3.75 1.33q1.61.7 2.87 1.33a12 12 0 0 0-1 2.52 16.08 16.08 0 0 0-.6 2.87h-.84a18.22 18.22 0 0 0-2.55-2.55zm66.88 22.4q-.7-1.19-2.06-3.47l-3-5-3.46-5.81-3.46-5.81q-1.65-2.77-3-5t-2-3.33q1 .14 1.92.25a17.62 17.62 0 0 0 3.85 0q.94-.1 1.92-.25 3.15 6.09 6.41 12t6.9 12.25q1.61-2.52 3.36-5.53t3.5-6.16q1.75-3.15 3.36-6.33t3-6.2a10.8 10.8 0 0 0 5.46 0q-3.36 5.11-6 9.24t-4.73 7.47q-2 3.36-3.57 6.05t-2.66 4.87v5.53q0 2.94.1 5.77.07 2.84.18 5.25t.24 3.89q-1.61-.14-3.43-.14t-3.43.14q.42-3.64.49-8.82t.11-10.86zm35.91-4.27a27.53 27.53 0 0 1 1.92-10.6 22.13 22.13 0 0 1 5.39-7.87A23.22 23.22 0 0 1 1052 257a34.32 34.32 0 0 1 21.21 0 23.22 23.22 0 0 1 8.29 4.9 22.14 22.14 0 0 1 5.39 7.88 30.18 30.18 0 0 1 0 21.21 21.6 21.6 0 0 1-13.69 12.67 36.51 36.51 0 0 1-21.21 0 21.6 21.6 0 0 1-13.72-12.66 27.53 27.53 0 0 1-1.93-10.59zm45.57 0a30.7 30.7 0 0 0-1.47-10 19.1 19.1 0 0 0-4.09-7 16.33 16.33 0 0 0-6.16-4.09 22.55 22.55 0 0 0-15.26 0 16.32 16.32 0 0 0-6.16 4.09 19.09 19.09 0 0 0-4.09 7 35 35 0 0 0 0 20.09 19.07 19.07 0 0 0 4.09 7 16.29 16.29 0 0 0 6.16 4.09 22.55 22.55 0 0 0 15.26 0 16.31 16.31 0 0 0 6.16-4.09 19.08 19.08 0 0 0 4.09-7 30.69 30.69 0 0 0 1.47-10.09zm65.73-1.41q0-9.94-.07-15.33a71.29 71.29 0 0 0-.35-7.42l1.47.25a9.37 9.37 0 0 0 1.4.11 7.54 7.54 0 0 0 2.1-.35q-.21 2.45-.42 5.85t-.35 7.28q-.14 3.89-.28 8t-.21 7.95a25.31 25.31 0 0 1-1.43 8.4 17.61 17.61 0 0 1-3.88 6.3 16.17 16.17 0 0 1-6.2 3.92 24.74 24.74 0 0 1-8.43 1.33q-10.5 0-15.26-4.76t-4.76-15q0-3.29.18-5.84t.17-5.21q0-5.88-.14-10.43t-.28-7.7q.84.14 1.82.25a17.09 17.09 0 0 0 1.82.11 10.59 10.59 0 0 0 1.5-.11q.73-.1 1.5-.25-.14 1.54-.28 4t-.28 5.63q-.14 3.15-.21 6.79t-.07 7.56q0 2.38.07 4.93a34.32 34.32 0 0 0 .49 5 20.67 20.67 0 0 0 1.36 4.62 11.37 11.37 0 0 0 2.7 3.85 12.38 12.38 0 0 0 4.41 2.59 19.83 19.83 0 0 0 6.58.95 16.51 16.51 0 0 0 6.47-1.12 12.34 12.34 0 0 0 4.3-2.94 13.43 13.43 0 0 0 2.63-4.2 23.7 23.7 0 0 0 1.37-5 38.86 38.86 0 0 0 .49-5.18q.07-2.65.07-4.83zm30.59-4.61q0-4.62-.18-9.07t-.38-9.07q2 .14 4 .25t4 .11q2 0 4-.17t4-.18a27.16 27.16 0 0 1 5.6.56 13.65 13.65 0 0 1 4.65 1.85 9.37 9.37 0 0 1 3.15 3.4 12.14 12.14 0 0 1-.35 11 14 14 0 0 1-3.67 4 18.18 18.18 0 0 1-4.65 2.45 23.34 23.34 0 0 1-4.52 1.16q.84 1.05 2.31 2.94t3.29 4.17q1.82 2.28 3.78 4.76t3.78 4.76q1.82 2.27 3.43 4.17t2.59 2.87a15.62 15.62 0 0 0-2.1-.14h-4.13a14.14 14.14 0 0 0-2 .14q-1.05-1.47-3.18-4.41t-4.73-6.3q-2.59-3.36-5.28-6.69t-4.94-5.63h-2.7v5.11q0 4.62.17 9.1t.39 8.82q-1.61-.14-3.43-.14t-3.43.14q.21-4.34.38-8.82t.18-9.1zm5.74 4a14.17 14.17 0 0 0 2.14.28q1.15.07 2.55.07a22 22 0 0 0 4.51-.49 13.12 13.12 0 0 0 4.31-1.71 10.21 10.21 0 0 0 3.25-3.29A9.66 9.66 0 0 0 1202 268a9 9 0 0 0-1-4.52 8.1 8.1 0 0 0-2.62-2.83 10 10 0 0 0-3.5-1.43 18.62 18.62 0 0 0-3.71-.38q-2.45 0-4.06.1t-2.73.25q-.14 3.85-.28 7.63t-.14 7.56zm88.27 25.96q-.56-1.75-1.71-5.53t-2.62-8.54l-3.08-10q-1.61-5.21-3.08-9.94t-2.69-8.5q-1.23-3.78-1.93-5.6l1.75.25a14.57 14.57 0 0 0 3.5 0l1.75-.25q1.33 5.32 2.59 10t2.69 9.45q1.43 4.79 3.08 10.08t3.75 11.93h.14l1.75-5.21q1.12-3.32 2.45-7.35t2.8-8.36q1.47-4.34 2.73-8.29t2.24-7.21q1-3.25 1.4-5a7.79 7.79 0 0 0 4.62 0q.49 1.89 1.5 5.18t2.28 7.31q1.26 4 2.7 8.37t2.76 8.33q1.33 4 2.42 7.21t1.71 5h.14q.49-1.54 1.5-4.79t2.31-7.35q1.29-4.1 2.66-8.61t2.59-8.61q1.22-4.09 2.17-7.31t1.29-4.76q.63.14 1.22.25a7.17 7.17 0 0 0 2.45 0q.59-.1 1.23-.25-.7 1.61-2 5.32t-3 8.47q-1.65 4.76-3.43 10.08t-3.43 10.12q-1.65 4.8-2.94 8.61t-1.92 5.5a20.21 20.21 0 0 0-4.76 0q-3.15-9.73-6.23-19.57t-6.65-20.33h-.14l-1.5 4.3q-.94 2.7-2.1 6.06l-2.5 7.19q-1.33 3.85-2.66 7.77t-2.59 7.7q-1.26 3.78-2.31 6.86a21.42 21.42 0 0 0-4.9 0zm68.25-23.94a27.53 27.53 0 0 1 1.92-10.6 22.12 22.12 0 0 1 5.39-7.87 23.21 23.21 0 0 1 8.29-4.9 34.32 34.32 0 0 1 21.21 0 23.23 23.23 0 0 1 8.29 4.9 22.14 22.14 0 0 1 5.39 7.88 30.18 30.18 0 0 1 0 21.21 21.59 21.59 0 0 1-13.68 12.67 36.51 36.51 0 0 1-21.21 0 21.6 21.6 0 0 1-13.67-12.7 27.53 27.53 0 0 1-1.93-10.59zm45.57 0a30.7 30.7 0 0 0-1.47-10 19.09 19.09 0 0 0-4.09-7 16.32 16.32 0 0 0-6.16-4.09 22.55 22.55 0 0 0-15.26 0 16.32 16.32 0 0 0-6.16 4.09 19.09 19.09 0 0 0-4.09 7 35.06 35.06 0 0 0 0 20.09 19.07 19.07 0 0 0 4.09 7 16.29 16.29 0 0 0 6.16 4.09 22.55 22.55 0 0 0 15.26 0 16.3 16.3 0 0 0 6.16-4.09 19.07 19.07 0 0 0 4.09-7 30.69 30.69 0 0 0 1.47-10.09zm29.26-6.02q0-4.62-.17-9.07t-.38-9.07q2 .14 4 .25t4 .11q2 0 4-.17t4-.18a27.15 27.15 0 0 1 5.6.56 13.65 13.65 0 0 1 4.66 1.85 9.37 9.37 0 0 1 3.15 3.4 12.15 12.15 0 0 1-.35 11 14 14 0 0 1-3.67 4 18.17 18.17 0 0 1-4.66 2.45 23.35 23.35 0 0 1-4.51 1.16q.84 1.05 2.31 2.94t3.29 4.17q1.82 2.28 3.78 4.76t3.78 4.76q1.82 2.27 3.43 4.17t2.59 2.87a15.63 15.63 0 0 0-2.1-.14h-4.13a14.14 14.14 0 0 0-2 .14q-1.05-1.47-3.18-4.41t-4.73-6.3q-2.59-3.36-5.29-6.69t-4.93-5.63h-2.66v5.11q0 4.62.17 9.1t.38 8.82q-1.61-.14-3.43-.14t-3.43.14q.21-4.34.38-8.82t.17-9.1zm5.74 4a14.17 14.17 0 0 0 2.13.28q1.16.07 2.56.07a22.05 22.05 0 0 0 4.51-.49 13.11 13.11 0 0 0 4.3-1.71 10.2 10.2 0 0 0 3.25-3.29 9.65 9.65 0 0 0 1.29-5.21 9.05 9.05 0 0 0-1-4.52 8.1 8.1 0 0 0-2.62-2.83 10 10 0 0 0-3.5-1.43 18.62 18.62 0 0 0-3.71-.38q-2.45 0-4.06.1t-2.73.25q-.14 3.85-.28 7.63t-.14 7.56zm49.46-13.06q-.18-4.44-.39-9.07l1.75.25a13.44 13.44 0 0 0 3.36 0l1.75-.25q-.21 4.62-.38 9.07t-.18 9.07q0 8.82.07 15.29t.14 11.58q5 0 9.52-.11a90 90 0 0 0 9.8-.8 8.13 8.13 0 0 0-.35 2.1 6.54 6.54 0 0 0 .35 1.89q-3.22-.14-6.44-.14h-12.91q-3.12 0-6.48.14.21-4.34.39-8.82t.17-9.1v-12q0-4.66-.17-9.1zm47.77 9.06q0-4.62-.17-9.07t-.38-9.07q2.66.14 5.28.25t5.29.11q2.66 0 5.29-.17t5.29-.18a30.6 30.6 0 0 1 10.54 1.61 18.4 18.4 0 0 1 7.17 4.58 18 18 0 0 1 4.09 7.28 33.63 33.63 0 0 1 1.29 9.7 26 26 0 0 1-2.42 11.79 22.52 22.52 0 0 1-6.16 7.73 23 23 0 0 1-8.26 4.17 33 33 0 0 1-8.64 1.23q-2.38 0-4.69-.07t-4.69-.07h-4.69q-2.31 0-4.69.14.21-4.34.38-8.82t.17-9.1zm5.74 12q0 7.56.42 14.84a25.52 25.52 0 0 0 4 .52q2.52.18 5.18.18a33.4 33.4 0 0 0 7.7-.91 16.69 16.69 0 0 0 6.89-3.43 18.33 18.33 0 0 0 5-6.89 34.11 34.11 0 0 0 .42-21.32 15.24 15.24 0 0 0-4.13-6.19 14.63 14.63 0 0 0-6.26-3.15 34.15 34.15 0 0 0-8-.87q-3.15 0-5.88.21t-4.9.49q-.21 3.36-.32 7t-.1 7.46zm93.21-21.06q-.18-4.44-.39-9.07l1.75.25a13.44 13.44 0 0 0 3.36 0l1.75-.25q-.21 4.62-.38 9.07t-.17 9.07v12q0 4.62.17 9.1t.38 8.82q-1.61-.14-3.43-.14t-3.43.14q.21-4.34.39-8.82t.17-9.1v-12q0-4.63-.17-9.07zm54.49 20.86q-9.1-9.77-18.2-19.43-.07 2-.14 5.25t-.07 9v3.64q0 2.17.07 4.55 0 2.38.11 4.83t.14 4.55q.07 2.1.14 3.67t.14 2.14a19.57 19.57 0 0 0-2.45-.14 21.92 21.92 0 0 0-2.59.14q.14-.7.31-2.59t.32-4.51q.14-2.62.32-5.71t.28-6.16q.11-3.08.18-6t.07-5.25v-11.55q0-4.83-.17-7.21h1.12l9.13 9.9q4.86 5.29 9.66 10.43t9.1 9.73q4.3 4.59 7.52 7.81v-9.58q0-7.35-.1-14.32t-.46-13.12a10 10 0 0 0 2.38.35 9.73 9.73 0 0 0 2.24-.35q-.14 1.54-.32 4.62t-.35 6.58q-.18 3.5-.32 6.86t-.14 5.39v9.2q0 2.62.07 5.22 0 2.63.07 4.9t0 4v2.31h-1q-7.96-9.34-17.06-19.15zm54.32-26.29h-3.81q-1.99 0-4 .14-2 .11-3.85.25t-3.32.35a8.52 8.52 0 0 0 .35-2.24 9.71 9.71 0 0 0-.35-2.17q4.62.14 9 .25t9 .11q4.62 0 9-.11t9-.25a9.73 9.73 0 0 0-.35 2.24 8.26 8.26 0 0 0 .35 2.17q-1.47-.21-3.33-.35t-3.85-.25q-2-.11-4-.14t-3.82 0q-.21 7.21-.21 14.49v12q0 4.62.17 9.1t.39 8.82q-1.61-.14-3.43-.14t-3.43.14q.21-4.34.38-8.82t.17-9.1v-12q.15-7.28-.06-14.49zm35.49 20.51a27.53 27.53 0 0 1 1.92-10.6 22.13 22.13 0 0 1 5.39-7.87 23.22 23.22 0 0 1 8.3-4.9 34.32 34.32 0 0 1 21.21 0 23.23 23.23 0 0 1 8.29 4.9 22.14 22.14 0 0 1 5.39 7.88 30.18 30.18 0 0 1 0 21.21 21.59 21.59 0 0 1-13.68 12.67 36.51 36.51 0 0 1-21.21 0 21.59 21.59 0 0 1-13.68-12.7 27.53 27.53 0 0 1-1.93-10.59zm45.57 0a30.7 30.7 0 0 0-1.47-10 19.09 19.09 0 0 0-4.09-7 16.32 16.32 0 0 0-6.16-4.09 22.55 22.55 0 0 0-15.26 0 16.32 16.32 0 0 0-6.16 4.09 19.09 19.09 0 0 0-4.09 7 35.06 35.06 0 0 0 0 20.09 19.07 19.07 0 0 0 4.09 7 16.29 16.29 0 0 0 6.16 4.09 22.55 22.55 0 0 0 15.26 0 16.3 16.3 0 0 0 6.16-4.09 19.07 19.07 0 0 0 4.09-7 30.69 30.69 0 0 0 1.47-10.09zm61.15-15.08q-.18-4.44-.39-9.07 3.15.14 6.26.25t6.27.11q3.15 0 6.37-.11l7-.25a10.61 10.61 0 0 0 0 4.2q-1.89-.21-4.55-.38t-5.43-.28l-5.32-.17q-2.56-.07-4.24-.07-.07 2.45-.11 4.69t0 4.48V277.54q4.62 0 9.14-.14t8.92-.56a8 8 0 0 0 0 4.2q-1.75-.21-4-.31t-4.58-.18q-2.38-.07-4.83-.07h-4.69v6q0 4.62.18 9.1t.38 8.82q-1.61-.14-3.43-.14t-3.43.14q.21-4.34.39-8.82t.17-9.1v-12q.09-4.71-.08-9.15zm43.85 15.08a27.53 27.53 0 0 1 1.92-10.6 22.12 22.12 0 0 1 5.39-7.87 23.21 23.21 0 0 1 8.29-4.9 34.32 34.32 0 0 1 21.21 0 23.23 23.23 0 0 1 8.29 4.9 22.14 22.14 0 0 1 5.39 7.88 30.18 30.18 0 0 1 0 21.21 21.59 21.59 0 0 1-13.68 12.67 36.51 36.51 0 0 1-21.21 0A21.6 21.6 0 0 1 1914 291a27.53 27.53 0 0 1-1.89-10.59zm45.57 0a30.72 30.72 0 0 0-1.47-10 19.1 19.1 0 0 0-4.1-7 16.32 16.32 0 0 0-6.16-4.09 22.55 22.55 0 0 0-15.26 0 16.32 16.32 0 0 0-6.16 4.09 19.09 19.09 0 0 0-4.09 7 35.06 35.06 0 0 0 0 20.09 19.07 19.07 0 0 0 4.09 7 16.29 16.29 0 0 0 6.16 4.09 22.55 22.55 0 0 0 15.26 0 16.3 16.3 0 0 0 6.16-4.09 19.09 19.09 0 0 0 4.1-7 30.71 30.71 0 0 0 1.47-10.09zm63.46 22.3a18.92 18.92 0 0 1-3.29 1.19q-1.93.52-4.3.94a28.54 28.54 0 0 1-5 .42 31.93 31.93 0 0 1-10.22-1.57 21.55 21.55 0 0 1-8.08-4.79 22.56 22.56 0 0 1-5.32-7.87 30.16 30.16 0 0 1 0-21.21 22.11 22.11 0 0 1 5.39-7.87 23.22 23.22 0 0 1 8.29-4.9 32.2 32.2 0 0 1 10.64-1.68 35.1 35.1 0 0 1 8.44.94 39.5 39.5 0 0 1 6.75 2.28 9.23 9.23 0 0 0-.91 2.66q-.35 1.68-.56 2.8l-.42.14a15.56 15.56 0 0 0-2-1.89 21.59 21.59 0 0 0-2.94-2 18.71 18.71 0 0 0-3.78-1.64 15.24 15.24 0 0 0-4.62-.67 21.61 21.61 0 0 0-7.67 1.33 16.32 16.32 0 0 0-6.16 4.09 19.1 19.1 0 0 0-4.1 7 35.06 35.06 0 0 0 0 20.09 19.09 19.09 0 0 0 4.1 7 16.3 16.3 0 0 0 6.16 4.09 21.57 21.57 0 0 0 7.67 1.33 16.39 16.39 0 0 0 4.66-.63 24.88 24.88 0 0 0 3.92-1.5 23.36 23.36 0 0 0 3.22-1.89q1.43-1 2.42-1.79l.28.28-.63 4.13a9.06 9.06 0 0 1-1.94 1.19zM2082.7 279q0-9.94-.07-15.33a71.66 71.66 0 0 0-.35-7.42l1.47.25a9.38 9.38 0 0 0 1.4.11 7.54 7.54 0 0 0 2.1-.35q-.21 2.45-.42 5.85t-.35 7.28q-.14 3.89-.28 8t-.21 7.95a25.34 25.34 0 0 1-1.43 8.4 17.6 17.6 0 0 1-3.89 6.3 16.17 16.17 0 0 1-6.19 3.92 24.74 24.74 0 0 1-8.44 1.33q-10.5 0-15.26-4.76t-4.76-15q0-3.29.17-5.84t.17-5.21q0-5.88-.14-10.43t-.28-7.7c.56.09 1.17.18 1.82.25a17.06 17.06 0 0 0 1.82.11 10.57 10.57 0 0 0 1.5-.11c.49-.07 1-.15 1.51-.25q-.14 1.54-.28 4t-.28 5.63q-.14 3.15-.21 6.79t-.07 7.56q0 2.38.07 4.93a34.32 34.32 0 0 0 .49 5 20.69 20.69 0 0 0 1.37 4.62 11.37 11.37 0 0 0 2.69 3.85 12.39 12.39 0 0 0 4.41 2.59 19.83 19.83 0 0 0 6.58.95 16.51 16.51 0 0 0 6.47-1.12 12.34 12.34 0 0 0 4.31-2.94 13.43 13.43 0 0 0 2.63-4.2 23.7 23.7 0 0 0 1.37-5 39 39 0 0 0 .49-5.18q.07-2.65.07-4.83zm30.56 18.81a11.55 11.55 0 0 0 2.31 2.34 11.71 11.71 0 0 0 7.25 2.38 10.36 10.36 0 0 0 4.17-.8 9.29 9.29 0 0 0 5.14-5.39 11.12 11.12 0 0 0 .7-4 7.51 7.51 0 0 0-1.65-5.11 13.59 13.59 0 0 0-4.09-3.15 47.88 47.88 0 0 0-5.29-2.31 27.27 27.27 0 0 1-5.29-2.62 14 14 0 0 1-4.09-4 11.64 11.64 0 0 1-1.64-6.58 13.28 13.28 0 0 1 1-5.35 11.67 11.67 0 0 1 3-4.17 14.41 14.41 0 0 1 4.79-2.73 19 19 0 0 1 6.3-1 18.71 18.71 0 0 1 5.81.8 14.49 14.49 0 0 1 4.55 2.49 15.07 15.07 0 0 0-1 2.52q-.42 1.33-.84 3.36h-.84a18 18 0 0 0-.94-2.14 8.23 8.23 0 0 0-1.61-2.13 9 9 0 0 0-2.42-1.64 7.78 7.78 0 0 0-3.36-.67 10 10 0 0 0-3.6.63 8.61 8.61 0 0 0-2.87 1.79 7.86 7.86 0 0 0-1.89 2.76 9.06 9.06 0 0 0-.67 3.5 7.62 7.62 0 0 0 1.64 5.18A14 14 0 0 0 2122 275a40.33 40.33 0 0 0 5.29 2.31 29.73 29.73 0 0 1 5.29 2.49 13.49 13.49 0 0 1 4.09 3.78 10.41 10.41 0 0 1 1.65 6.16 16.15 16.15 0 0 1-1.16 6.09 14.31 14.31 0 0 1-3.36 5 15 15 0 0 1-5.39 3.29 21.18 21.18 0 0 1-7.25 1.15 18.08 18.08 0 0 1-7-1.15 19.2 19.2 0 0 1-4.51-2.62 16.57 16.57 0 0 0 .88-2.91q.24-1.29.46-3.33h.84a14 14 0 0 0 1.43 2.55z" transform="translate(-.42 -.42)"/><path class="cls-2" d="M1 311V13A23.58 23.58 0 0 1 16 1q182.5 0 365-.1c3.42 0 4.1.67 4.1 4.1q-.18 154-.1 308c-1.82 3.5-3.54 7.11-6.77 9.56-1.3 1-2.64 1.83-3.23 3.44H15c-7.06-2.76-12.27-7.26-14-15zm36.13-140.6h-.05v94a49 49 0 0 0 .49 8c1.54 9.26 7.17 12.1 15.93 8.46 4.72-2 8.41-5.35 12.41-8.32q34.28-25.46 68.48-51 40-29.88 80.09-59.75c12.43-9.23 24.93-18.36 37.32-27.62 15.32-11.44 30.54-23 45.75-34.61 4.61-3.52 9.31-6.93 13.87-10.52 2.29-1.8 3.14-3.94 1.67-7a57.26 57.26 0 0 0-13.33-17.19c-4.95-4.54-10.84-7.66-16.45-11.23A151.34 151.34 0 0 0 227 31.5c-20-3.41-39.52-1.32-58.78 4.21-18.71 5.38-35 15.31-49.83 27.69-19 15.82-31.61 36-39.06 59.25a121.79 121.79 0 0 0-2.3 67 125.22 125.22 0 0 0 12 31.11c1.17 2.13 2.42 3.62 5.06 1.77q9.2-6.44 18.52-12.72c2.65-1.78 2.51-3.51 1.23-6.29a137.32 137.32 0 0 1-9.84-27.78 116.45 116.45 0 0 1-1.17-45.58c3.94-22.74 13-43 30.16-58.36 31-27.87 66.6-36.33 106.53-22 15.59 5.57 29.53 13.6 39.81 27.2 7.36 9.74 7.17 13.49-2.54 20.56-.13.1-.29.16-.43.25-10.7 7.63-21.45 15.18-32.07 22.91-22.32 16.27-44.53 32.71-66.87 49q-40.77 29.68-81.67 59.18c-10.52 7.62-21 15.26-31.58 22.83-1.29.93-2.72 2.53-4.43 1.67s-.94-3-1-4.55c-.74-30.15-.28-60.31-.06-90.45.28-37.43-2.69-75 2.92-112.28.45-3-.52-4.42-3.63-4.36-7 .13-14 .23-21 .24-2.3 0-3.43.8-3.14 3.23s.41 4.64.64 7c1.13 11.25 2.77 22.42 2.65 33.81-.17 28.04.01 56.2.01 84.36zM326.42 127h.37c0 11.83-.12 23.66 0 35.49.18 14-1.16 27.5-5.54 41.18-5.28 16.49-14.6 29.87-26.3 41.61-12.76 12.8-28.63 20.92-46.46 24.88-28.88 6.42-56.22 2.1-82.26-11.57A121.07 121.07 0 0 1 135 234.83c-2.43-2.54-4.43-2.86-7.26-.7-4.76 3.64-9.75 7-14.58 10.52-4.19 3.08-4.15 3.5-.64 7.19A121.23 121.23 0 0 0 164.07 284c22.59 7.31 45.56 9.42 69 4.8 27.7-5.46 51.73-17.75 71.46-38.2a236.61 236.61 0 0 0 17-20.23c1-1.24 1.82-2.57 3.6-2 1.51.52 1.58 2 1.62 3.35.15 5.33.49 10.66-.1 16-1 9.23-2 18.48-3.2 27.68-.41 3.08.74 3.9 3.45 3.86 5.66-.1 11.31-.24 17-.14 3.3.06 3.95-.93 3.82-4.41-.34-9.81-2.55-19.43-2.55-29.25V77.52a72.44 72.44 0 0 1 .61-7.92c.84-7.59 1.22-15.24 1.68-22.87.15-2.41-.55-4-3.61-4-5.49.1-11-.13-16.47-.3-3.56-.11-4.54 1.32-4 4.9 1.27 9.21 2.75 18.45 3 27.71.38 17.31.04 34.64.04 51.96z" transform="translate(-.42 -.42)"/><path class="cls-3" d="M1 311c1.73 7.74 6.94 12.24 14 15-4 0-8-.12-12 .05-1.75.08-2.12-.31-2.06-2.06.17-4.32.06-8.66.06-12.99zM16 1A23.58 23.58 0 0 0 1 13c0-4-1.56-9.56.44-11.56S9 1 13 1zm359 325c.59-1.61 1.93-2.45 3.23-3.44 3.23-2.46 5-6.06 6.77-9.56 0 3.67-.12 7.34.05 11 .09 1.75-.3 2.18-2.06 2.05-2.65-.19-5.32-.05-7.99-.05zM37.13 170.4c0-28.16-.18-56.32.09-84.48.11-11.39-1.53-22.56-2.65-33.81-.23-2.32-.37-4.65-.64-7s.84-3.23 3.14-3.23c7 0 14-.11 21-.24 3.11-.06 4.08 1.37 3.63 4.36-5.62 37.3-2.65 74.85-2.92 112.28-.22 30.14-.68 60.3.06 90.45 0 1.57-.81 3.64 1 4.55s3.14-.74 4.43-1.67c10.56-7.57 21.06-15.21 31.58-22.83q40.84-29.58 81.67-59.18c22.33-16.26 44.54-32.69 66.87-49 10.62-7.74 21.37-15.28 32.07-22.91.14-.1.3-.16.43-.25 9.71-7.07 9.9-10.82 2.54-20.56-10.28-13.6-24.23-21.63-39.81-27.2C199.63 35.47 164 43.93 133 71.8c-17.13 15.41-26.23 35.63-30.16 58.36a116.45 116.45 0 0 0 1.16 45.58 137.32 137.32 0 0 0 9.78 27.74c1.28 2.78 1.42 4.52-1.23 6.29q-9.33 6.25-18.52 12.72c-2.64 1.85-3.88.36-5.06-1.77a125.22 125.22 0 0 1-12-31.11 121.79 121.79 0 0 1 2.3-67c7.45-23.24 20.05-43.43 39.06-59.25C133.25 51 149.49 41.09 168.2 35.71c19.26-5.53 38.8-7.62 58.8-4.21a151.34 151.34 0 0 1 56.36 22.05c5.61 3.58 11.51 6.69 16.45 11.23A57.26 57.26 0 0 1 313.12 82c1.47 3 .62 5.17-1.67 7-4.56 3.58-9.26 7-13.87 10.52-15.21 11.6-30.43 23.18-45.75 34.61-12.4 9.25-24.9 18.39-37.32 27.62q-40.11 29.78-80.09 59.75-34.23 25.54-68.48 51c-4 3-7.68 6.35-12.41 8.32-8.76 3.65-14.39.8-15.93-8.46a49 49 0 0 1-.49-8v-94z" transform="translate(-.42 -.42)"/><path class="cls-3" d="M326.42 127c0-17.32.34-34.66-.14-52-.25-9.26-1.74-18.51-3-27.71-.49-3.58.49-5 4-4.9 5.49.17 11 .4 16.47.3 3.07-.06 3.76 1.58 3.61 4-.46 7.63-.84 15.28-1.68 22.87a72.44 72.44 0 0 0-.61 7.92v167.94c0 9.81 2.2 19.44 2.55 29.25.12 3.48-.52 4.47-3.82 4.41-5.65-.1-11.31 0-17 .14-2.7 0-3.86-.77-3.45-3.86 1.24-9.2 2.18-18.45 3.2-27.68.58-5.32.24-10.65.1-16 0-1.33-.11-2.83-1.62-3.35-1.77-.61-2.64.72-3.6 2a236.61 236.61 0 0 1-17 20.23c-19.73 20.45-43.76 32.75-71.46 38.2-23.42 4.61-46.39 2.51-69-4.8a121.23 121.23 0 0 1-51.55-32.13c-3.5-3.69-3.55-4.12.64-7.19 4.83-3.55 9.82-6.88 14.58-10.52 2.82-2.16 4.83-1.83 7.26.7a121.07 121.07 0 0 0 31.26 23.76c26 13.67 53.38 18 82.26 11.57 17.82-4 33.7-12.08 46.46-24.88 11.7-11.74 21-25.11 26.3-41.61 4.38-13.69 5.72-27.17 5.54-41.18-.15-11.83 0-23.66 0-35.49z" transform="translate(-.42 -.42)"/></g></svg>